<svg width="120" height="36" viewBox="0 0 120 36" fill="none" xmlns="http://www.w3.org/2000/svg">
<path d="M8.257 15.382V9.06464L5.41815 12.5115L2.5793 9.06464V15.382H0V4.67615H1.66545L5.41815 9.25866L9.17085 4.67615H10.8363V15.382H8.257Z" fill="#19191B"/>
<path d="M24.0673 10.029C24.0673 13.0707 21.7314 15.5132 18.8547 15.5132C15.978 15.5132 13.6582 13.0707 13.6582 10.029C13.6582 6.98731 15.9725 4.52771 18.8547 4.52771C21.7368 4.52771 24.0673 6.99301 24.0673 10.029ZM16.2321 10.029C16.2321 11.7867 17.492 12.8767 18.8492 12.8767C20.2065 12.8767 21.4664 11.7867 21.4664 10.029C21.4664 8.27133 20.1903 7.15851 18.8492 7.15851C17.5082 7.15851 16.2321 8.27133 16.2321 10.029Z" fill="#19191B"/>
<path d="M35.4073 6.5151L33.8662 8.27277C33.0335 7.4567 32.3035 7.18278 31.4113 7.18278C30.0541 7.18278 28.7941 8.27276 28.7941 10.0304C28.7941 11.7881 30.0541 12.8781 31.4113 12.8781C32.3035 12.8781 33.0335 12.5985 33.8662 11.7881L35.4073 13.5458C34.4556 14.7442 33.0119 15.5146 31.4113 15.5146C28.5292 15.5146 26.2148 13.0721 26.2148 10.0304C26.2148 6.98874 28.5292 4.54626 31.4113 4.54626C33.0119 4.54626 34.4556 5.31668 35.4073 6.5151Z" fill="#19191B"/>
<path d="M40.6301 15.382H38.0508V4.67615H40.6301V8.59668H42.1495L44.8262 4.67615H47.6867L44.1557 9.90351L47.8705 15.3877H44.9884L42.1495 11.2332H40.6301V15.3877V15.382Z" fill="#19191B"/>
<path d="M59.5615 10.029C59.5615 13.0707 57.2255 15.5132 54.3488 15.5132C51.4721 15.5132 49.1523 13.0707 49.1523 10.029C49.1523 6.98731 51.4667 4.52771 54.3488 4.52771C57.2309 4.52771 59.5615 6.99301 59.5615 10.029ZM51.7316 10.029C51.7316 11.7867 52.9916 12.8767 54.3488 12.8767C55.706 12.8767 56.9659 11.7867 56.9659 10.029C56.9659 8.27133 55.6898 7.15851 54.3488 7.15851C53.0078 7.15851 51.7316 8.27133 51.7316 10.029Z" fill="#19191B"/>
<path d="M67.688 4.672C70.1051 4.672 71.1758 5.76199 71.1758 7.58244C71.1758 8.58683 70.7918 9.42572 69.7969 9.79095C71.0351 10.0934 71.6408 10.9894 71.6408 12.1878C71.6408 14.4591 70.462 15.3779 67.7042 15.3779H62.3672V4.672H67.6826H67.688ZM64.9519 8.89498H67.5474C68.2774 8.87216 68.6019 8.50692 68.6019 7.93054C68.6019 7.35416 68.2558 6.98893 67.5042 6.98893H64.9465V8.89498H64.9519ZM67.7691 13.0666C68.7424 13.0666 69.0669 12.5758 69.0669 11.9538C69.0669 11.3318 68.7424 10.8809 67.807 10.8638H64.9465V13.0666H67.7691Z" fill="#19191B"/>
<path d="M82.9972 6.5151L81.4561 8.27277C80.6233 7.4567 79.8934 7.18278 79.0012 7.18278C77.6439 7.18278 76.384 8.27276 76.384 10.0304C76.384 11.7881 77.6439 12.8781 79.0012 12.8781C79.8934 12.8781 80.6233 12.5985 81.4561 11.7881L82.9972 13.5458C82.0455 14.7442 80.6017 15.5146 79.0012 15.5146C76.119 15.5146 73.8047 13.0721 73.8047 10.0304C73.8047 6.98874 76.119 4.54626 79.0012 4.54626C80.6017 4.54626 82.0455 5.31668 82.9972 6.5151Z" fill="#19191B"/>
<path d="M88.2141 15.382H85.6348V4.67615H88.2141V8.59668H89.7335L92.4102 4.67615H95.2707L91.7397 9.90351L95.4545 15.3877H92.5724L89.7335 11.2332H88.2141V15.3877V15.382Z" fill="#19191B"/>
<path d="M104.549 15.382V9.06464L99.353 15.382H97.6875V4.67615H100.267V10.9935L105.463 4.67615H107.129V15.382H104.549Z" fill="#19191B"/>
<path d="M117.421 15.3832V9.06583L112.224 15.3832H110.559V4.67734H113.138V10.9947L118.334 4.67734H120V15.3832H117.421ZM112.121 0.5H113.906C113.906 1.27041 114.517 1.86962 115.306 1.86962C116.096 1.86962 116.728 1.27041 116.728 0.5H118.497C118.497 2.38323 117.074 3.75283 115.312 3.75283C113.549 3.75283 112.127 2.38323 112.127 0.5H112.121Z" fill="#19191B"/>
<path d="M7.00251 35.3681V27.293H2.5793V35.3681H0V24.6622H9.5764V35.3681H6.99709H7.00251Z" fill="#19191B"/>
<path d="M26.6888 35.3681H23.9473L28.6354 24.6622H30.3009L34.9891 35.3681H32.2692L29.4682 28.6627L26.6888 35.3681Z" fill="#19191B"/>
<path d="M44.0689 35.3681V29.0507L38.8725 35.3681H37.207V24.6622H39.7863V30.9796L44.9828 24.6622H46.6482V35.3681H44.0689Z" fill="#19191B"/>
<path d="M54.8792 35.3676H52.3215V27.2925H49.1582V24.656H58.0479V27.2925H54.8846V35.3676H54.8792Z" fill="#19191B"/>
<path d="M69.1424 27.4014C69.5695 28.3887 69.5858 29.8439 69.3046 30.7627H62.221C62.221 32.2179 63.3565 33.0111 64.7354 33.0111C65.7898 33.0111 66.8875 32.7543 67.8013 32.2636L69.1586 33.8272C68.0609 34.6832 66.5414 35.4993 64.7354 35.4993C61.6532 35.4993 59.5605 33.1424 59.5605 30.0151C59.5605 26.8878 61.5072 24.5138 64.6759 24.5138C66.8496 24.5138 68.3691 25.6038 69.1424 27.4071V27.4014ZM62.3237 29.0507H66.9686C66.9686 28.7939 66.8875 28.4515 66.7253 28.1947C66.3792 27.5098 65.6492 26.9962 64.6759 26.9962C63.297 26.9962 62.3615 28.0234 62.3237 29.0507Z" fill="#19191B"/>
<path d="M73.9126 35.3676H70.9277L74.8859 29.7978L71.1494 24.656H74.1343L76.3892 27.6121L78.5791 24.656H81.5423L77.8113 29.9005L81.7857 35.3619H78.8008L76.3243 32.0634L73.9072 35.3619L73.9126 35.3676Z" fill="#19191B"/>
<path d="M20.6564 30.1462C20.6564 30.1462 20.678 30.1348 20.678 30.1233C20.678 30.1118 20.6672 30.1003 20.6564 30.1003C20.6456 30.1003 20.6348 30.1118 20.6348 30.1233C20.6348 30.1348 20.6456 30.1462 20.6564 30.1462Z" fill="#19191B"/>
<path d="M20.558 30.9901C20.5904 30.9901 20.6121 30.9614 20.6121 30.9327C20.6121 30.904 20.585 30.8754 20.558 30.8754C20.5309 30.8754 20.5039 30.904 20.5039 30.9327C20.5039 30.9614 20.5309 30.9901 20.558 30.9901Z" fill="#19191B"/>
<path d="M20.2721 31.7784C20.3207 31.7784 20.3586 31.7382 20.3586 31.6866C20.3586 31.635 20.3207 31.5948 20.2721 31.5948C20.2234 31.5948 20.1855 31.635 20.1855 31.6866C20.1855 31.7382 20.2234 31.7784 20.2721 31.7784Z" fill="#19191B"/>
<path d="M19.8186 32.4672C19.8781 32.4672 19.9322 32.4159 19.9322 32.3474C19.9322 32.2789 19.8835 32.2275 19.8186 32.2275C19.7537 32.2275 19.7051 32.2789 19.7051 32.3474C19.7051 32.4159 19.7537 32.4672 19.8186 32.4672Z" fill="#19191B"/>
<path d="M19.2231 33.0097C19.2988 33.0097 19.3583 32.9469 19.3583 32.867C19.3583 32.7871 19.2988 32.7244 19.2231 32.7244C19.1474 32.7244 19.0879 32.7871 19.0879 32.867C19.0879 32.9469 19.1474 33.0097 19.2231 33.0097Z" fill="#19191B"/>
<path d="M18.5195 33.3633C18.5952 33.3633 18.6601 33.3005 18.6601 33.2149C18.6601 33.1293 18.6006 33.0665 18.5195 33.0665C18.4384 33.0665 18.3789 33.1293 18.3789 33.2149C18.3789 33.3005 18.4384 33.3633 18.5195 33.3633Z" fill="#19191B"/>
<path d="M17.7632 33.5231C17.8443 33.5231 17.9092 33.4547 17.9092 33.3691C17.9092 33.2835 17.8443 33.215 17.7632 33.215C17.6821 33.215 17.6172 33.2835 17.6172 33.3691C17.6172 33.4547 17.6821 33.5231 17.7632 33.5231Z" fill="#19191B"/>
<path d="M16.9898 33.4716C17.0704 33.4716 17.1357 33.4026 17.1357 33.3175C17.1357 33.2324 17.0704 33.1635 16.9898 33.1635C16.9091 33.1635 16.8438 33.2324 16.8438 33.3175C16.8438 33.4026 16.9091 33.4716 16.9898 33.4716Z" fill="#19191B"/>
<path d="M16.254 33.2379C16.3459 33.2379 16.4162 33.1637 16.4162 33.0667C16.4162 32.9697 16.3459 32.8955 16.254 32.8955C16.1621 32.8955 16.0918 32.9697 16.0918 33.0667C16.0918 33.1637 16.1621 33.2379 16.254 33.2379Z" fill="#19191B"/>
<path d="M15.6008 32.8093C15.6963 32.8093 15.7738 32.7276 15.7738 32.6267C15.7738 32.5259 15.6963 32.4441 15.6008 32.4441C15.5052 32.4441 15.4277 32.5259 15.4277 32.6267C15.4277 32.7276 15.5052 32.8093 15.6008 32.8093Z" fill="#19191B"/>
<path d="M15.0707 32.2511C15.1843 32.2511 15.2762 32.1541 15.2762 32.0342C15.2762 31.9144 15.1843 31.8174 15.0707 31.8174C14.9572 31.8174 14.8652 31.9144 14.8652 32.0342C14.8652 32.1541 14.9572 32.2511 15.0707 32.2511Z" fill="#19191B"/>
<path d="M14.6974 31.5661C14.8271 31.5661 14.9299 31.4577 14.9299 31.3207C14.9299 31.1838 14.8271 31.0753 14.6974 31.0753C14.5676 31.0753 14.4648 31.1838 14.4648 31.3207C14.4648 31.4577 14.5676 31.5661 14.6974 31.5661Z" fill="#19191B"/>
<path d="M14.5076 30.8069C14.6536 30.8069 14.7672 30.6813 14.7672 30.533C14.7672 30.3846 14.6482 30.259 14.5076 30.259C14.367 30.259 14.248 30.3846 14.248 30.533C14.248 30.6813 14.367 30.8069 14.5076 30.8069Z" fill="#19191B"/>
<path d="M14.5091 29.9918C14.6551 29.9918 14.7741 29.8662 14.7741 29.7121C14.7741 29.5581 14.6551 29.4325 14.5091 29.4325C14.3631 29.4325 14.2441 29.5581 14.2441 29.7121C14.2441 29.8662 14.3631 29.9918 14.5091 29.9918Z" fill="#19191B"/>
<path d="M14.6981 29.2034C14.8441 29.2034 14.9685 29.0778 14.9685 28.918C14.9685 28.7582 14.8495 28.6327 14.6981 28.6327C14.5467 28.6327 14.4277 28.7582 14.4277 28.918C14.4277 29.0778 14.5467 29.2034 14.6981 29.2034Z" fill="#19191B"/>
<path d="M15.0708 28.5184C15.2331 28.5184 15.3682 28.3757 15.3682 28.2045C15.3682 28.0333 15.2331 27.8906 15.0708 27.8906C14.9086 27.8906 14.7734 28.0333 14.7734 28.2045C14.7734 28.3757 14.9086 28.5184 15.0708 28.5184Z" fill="#19191B"/>
<path d="M15.6003 27.9478C15.7765 27.9478 15.9193 27.7971 15.9193 27.6111C15.9193 27.4252 15.7765 27.2744 15.6003 27.2744C15.4241 27.2744 15.2812 27.4252 15.2812 27.6111C15.2812 27.7971 15.4241 27.9478 15.6003 27.9478Z" fill="#19191B"/>
<path d="M16.2552 27.5265C16.439 27.5265 16.5904 27.3667 16.5904 27.1727C16.5904 26.9786 16.439 26.8188 16.2552 26.8188C16.0713 26.8188 15.9199 26.9786 15.9199 27.1727C15.9199 27.3667 16.0713 27.5265 16.2552 27.5265Z" fill="#19191B"/>
<path d="M16.9891 27.2802C17.1772 27.2802 17.3298 27.1192 17.3298 26.9207C17.3298 26.7221 17.1772 26.5612 16.9891 26.5612C16.801 26.5612 16.6484 26.7221 16.6484 26.9207C16.6484 27.1192 16.801 27.2802 16.9891 27.2802Z" fill="#19191B"/>
<path d="M17.764 27.2278C17.9533 27.2278 18.1101 27.068 18.1101 26.8625C18.1101 26.6571 17.9587 26.4973 17.764 26.4973C17.5694 26.4973 17.418 26.6571 17.418 26.8625C17.418 27.068 17.5694 27.2278 17.764 27.2278Z" fill="#19191B"/>
<path d="M18.5199 27.3885C18.7092 27.3885 18.866 27.223 18.866 27.0233C18.866 26.8236 18.7092 26.6581 18.5199 26.6581C18.3306 26.6581 18.1738 26.8236 18.1738 27.0233C18.1738 27.223 18.3306 27.3885 18.5199 27.3885Z" fill="#19191B"/>
<path d="M19.2226 27.7421C19.4167 27.7421 19.574 27.576 19.574 27.3712C19.574 27.1663 19.4167 27.0002 19.2226 27.0002C19.0285 27.0002 18.8711 27.1663 18.8711 27.3712C18.8711 27.576 19.0285 27.7421 19.2226 27.7421Z" fill="#19191B"/>
<path d="M19.8178 28.2606C20.0125 28.2606 20.1747 28.0951 20.1747 27.884C20.1747 27.6728 20.0179 27.5073 19.8178 27.5073C19.6178 27.5073 19.4609 27.6728 19.4609 27.884C19.4609 28.0951 19.6178 28.2606 19.8178 28.2606Z" fill="#19191B"/>
<path d="M20.2709 28.9285C20.471 28.9285 20.6278 28.7573 20.6278 28.5518C20.6278 28.3464 20.4656 28.1752 20.2709 28.1752C20.0763 28.1752 19.9141 28.3464 19.9141 28.5518C19.9141 28.7573 20.0763 28.9285 20.2709 28.9285Z" fill="#19191B"/>
<path d="M20.5577 29.7172C20.7698 29.7172 20.9417 29.5358 20.9417 29.312C20.9417 29.0883 20.7698 28.9069 20.5577 28.9069C20.3457 28.9069 20.1738 29.0883 20.1738 29.312C20.1738 29.5358 20.3457 29.7172 20.5577 29.7172Z" fill="#19191B"/>
<path d="M21.2721 30.1389C21.281 30.1389 21.2883 30.1312 21.2883 30.1217C21.2883 30.1122 21.281 30.1045 21.2721 30.1045C21.2631 30.1045 21.2559 30.1122 21.2559 30.1217C21.2559 30.1312 21.2631 30.1389 21.2721 30.1389Z" fill="#19191B"/>
<path d="M21.1917 30.9775C21.1917 30.9775 21.235 30.9546 21.235 30.9316C21.235 30.9087 21.2133 30.8857 21.1917 30.8857C21.1701 30.8857 21.1484 30.9087 21.1484 30.9316C21.1484 30.9546 21.1701 30.9775 21.1917 30.9775Z" fill="#19191B"/>
<path d="M20.9531 31.783C20.9919 31.783 21.0234 31.7496 21.0234 31.7085C21.0234 31.6673 20.9919 31.6339 20.9531 31.6339C20.9143 31.6339 20.8828 31.6673 20.8828 31.7085C20.8828 31.7496 20.9143 31.783 20.9531 31.783Z" fill="#19191B"/>
<path d="M20.5646 32.5194C20.6187 32.5194 20.6565 32.4736 20.6565 32.422C20.6565 32.3704 20.6133 32.3245 20.5646 32.3245C20.5159 32.3245 20.4727 32.3704 20.4727 32.422C20.4727 32.4736 20.5159 32.5194 20.5646 32.5194Z" fill="#19191B"/>
<path d="M20.0456 33.1403C20.1051 33.1403 20.1538 33.0889 20.1538 33.0261C20.1538 32.9634 20.1051 32.912 20.0456 32.912C19.9862 32.912 19.9375 32.9634 19.9375 33.0261C19.9375 33.0889 19.9862 33.1403 20.0456 33.1403Z" fill="#19191B"/>
<path d="M19.4173 33.6383C19.4876 33.6383 19.5417 33.5812 19.5417 33.507C19.5417 33.4328 19.4876 33.3757 19.4173 33.3757C19.347 33.3757 19.293 33.4328 19.293 33.507C19.293 33.5812 19.347 33.6383 19.4173 33.6383Z" fill="#19191B"/>
<path d="M18.7153 33.9785C18.7899 33.9785 18.8504 33.9146 18.8504 33.8358C18.8504 33.757 18.7899 33.6931 18.7153 33.6931C18.6406 33.6931 18.5801 33.757 18.5801 33.8358C18.5801 33.9146 18.6406 33.9785 18.7153 33.9785Z" fill="#19191B"/>
<path d="M17.9585 34.158C18.0396 34.158 18.1045 34.0895 18.1045 34.0039C18.1045 33.9183 18.0396 33.8499 17.9585 33.8499C17.8774 33.8499 17.8125 33.9183 17.8125 34.0039C17.8125 34.0895 17.8774 34.158 17.9585 34.158Z" fill="#19191B"/>
<path d="M17.1792 34.1622C17.2598 34.1622 17.3252 34.0932 17.3252 34.0081C17.3252 33.923 17.2598 33.854 17.1792 33.854C17.0986 33.854 17.0332 33.923 17.0332 34.0081C17.0332 34.0932 17.0986 34.1622 17.1792 34.1622Z" fill="#19191B"/>
<path d="M16.422 34.0088C16.5116 34.0088 16.5842 33.9321 16.5842 33.8376C16.5842 33.743 16.5116 33.6664 16.422 33.6664C16.3324 33.6664 16.2598 33.743 16.2598 33.8376C16.2598 33.9321 16.3324 34.0088 16.422 34.0088Z" fill="#19191B"/>
<path d="M15.7141 33.6895C15.8096 33.6895 15.8871 33.6077 15.8871 33.5068C15.8871 33.406 15.8096 33.3242 15.7141 33.3242C15.6185 33.3242 15.541 33.406 15.541 33.5068C15.541 33.6077 15.6185 33.6895 15.7141 33.6895Z" fill="#19191B"/>
<path d="M15.0926 33.2332C15.2008 33.2332 15.2927 33.1419 15.2927 33.0221C15.2927 32.9022 15.2062 32.8109 15.0926 32.8109C14.9791 32.8109 14.8926 32.9022 14.8926 33.0221C14.8926 33.1419 14.9791 33.2332 15.0926 33.2332Z" fill="#19191B"/>
<path d="M14.5733 32.6502C14.6922 32.6502 14.795 32.5475 14.795 32.4162C14.795 32.285 14.6976 32.1823 14.5733 32.1823C14.4489 32.1823 14.3516 32.285 14.3516 32.4162C14.3516 32.5475 14.4489 32.6502 14.5733 32.6502Z" fill="#19191B"/>
<path d="M14.1838 31.9766C14.3244 31.9766 14.438 31.8568 14.438 31.7084C14.438 31.56 14.3244 31.4402 14.1838 31.4402C14.0432 31.4402 13.9297 31.56 13.9297 31.7084C13.9297 31.8568 14.0432 31.9766 14.1838 31.9766Z" fill="#19191B"/>
<path d="M13.9456 31.2016C14.0861 31.2016 14.1997 31.0818 14.1997 30.9334C14.1997 30.785 14.0861 30.6652 13.9456 30.6652C13.805 30.6652 13.6914 30.785 13.6914 30.9334C13.6914 31.0818 13.805 31.2016 13.9456 31.2016Z" fill="#19191B"/>
<path d="M13.8631 30.3967C14.0064 30.3967 14.1226 30.2741 14.1226 30.1228C14.1226 29.9715 14.0064 29.8489 13.8631 29.8489C13.7197 29.8489 13.6035 29.9715 13.6035 30.1228C13.6035 30.2741 13.7197 30.3967 13.8631 30.3967Z" fill="#19191B"/>
<path d="M13.9447 29.5858C14.0906 29.5858 14.2096 29.4602 14.2096 29.3061C14.2096 29.152 14.0906 29.0265 13.9447 29.0265C13.7987 29.0265 13.6797 29.152 13.6797 29.3061C13.6797 29.4602 13.7987 29.5858 13.9447 29.5858Z" fill="#19191B"/>
<path d="M14.1835 28.8264C14.3403 28.8264 14.4647 28.6952 14.4647 28.5297C14.4647 28.3642 14.3403 28.2329 14.1835 28.2329C14.0267 28.2329 13.9023 28.3642 13.9023 28.5297C13.9023 28.6952 14.0267 28.8264 14.1835 28.8264Z" fill="#19191B"/>
<path d="M14.5723 28.1423C14.7396 28.1423 14.8752 27.9992 14.8752 27.8228C14.8752 27.6463 14.7396 27.5032 14.5723 27.5032C14.4051 27.5032 14.2695 27.6463 14.2695 27.8228C14.2695 27.9992 14.4051 28.1423 14.5723 28.1423Z" fill="#19191B"/>
<path d="M15.091 27.5488C15.264 27.5488 15.4046 27.4005 15.4046 27.2178C15.4046 27.0352 15.264 26.8868 15.091 26.8868C14.9179 26.8868 14.7773 27.0352 14.7773 27.2178C14.7773 27.4005 14.9179 27.5488 15.091 27.5488Z" fill="#19191B"/>
<path d="M15.7131 27.0748C15.8923 27.0748 16.0376 26.9215 16.0376 26.7324C16.0376 26.5433 15.8923 26.39 15.7131 26.39C15.5339 26.39 15.3887 26.5433 15.3887 26.7324C15.3887 26.9215 15.5339 27.0748 15.7131 27.0748Z" fill="#19191B"/>
<path d="M16.4227 26.7608C16.612 26.7608 16.7634 26.601 16.7634 26.4013C16.7634 26.2015 16.612 26.0417 16.4227 26.0417C16.2334 26.0417 16.082 26.2015 16.082 26.4013C16.082 26.601 16.2334 26.7608 16.4227 26.7608Z" fill="#19191B"/>
<path d="M17.1785 26.5897C17.3667 26.5897 17.5192 26.4287 17.5192 26.2301C17.5192 26.0316 17.3667 25.8706 17.1785 25.8706C16.9904 25.8706 16.8379 26.0316 16.8379 26.2301C16.8379 26.4287 16.9904 26.5897 17.1785 26.5897Z" fill="#19191B"/>
<path d="M17.9574 26.595C18.1467 26.595 18.3035 26.4352 18.3035 26.2297C18.3035 26.0243 18.1521 25.8645 17.9574 25.8645C17.7627 25.8645 17.6113 26.0243 17.6113 26.2297C17.6113 26.4352 17.7627 26.595 17.9574 26.595Z" fill="#19191B"/>
<path d="M18.7152 26.766C18.9045 26.766 19.0613 26.6005 19.0613 26.4007C19.0613 26.201 18.9045 26.0355 18.7152 26.0355C18.526 26.0355 18.3691 26.201 18.3691 26.4007C18.3691 26.6005 18.526 26.766 18.7152 26.766Z" fill="#19191B"/>
<path d="M19.4179 27.1031C19.6125 27.1031 19.7694 26.9376 19.7694 26.7321C19.7694 26.5267 19.6125 26.3612 19.4179 26.3612C19.2232 26.3612 19.0664 26.5267 19.0664 26.7321C19.0664 26.9376 19.2232 27.1031 19.4179 27.1031Z" fill="#19191B"/>
<path d="M20.0444 27.5886C20.2391 27.5886 20.4013 27.4231 20.4013 27.212C20.4013 27.0008 20.2445 26.8353 20.0444 26.8353C19.8443 26.8353 19.6875 27.0008 19.6875 27.212C19.6875 27.4231 19.8443 27.5886 20.0444 27.5886Z" fill="#19191B"/>
<path d="M20.5635 28.2039C20.7636 28.2039 20.9258 28.0327 20.9258 27.8216C20.9258 27.6104 20.7636 27.4392 20.5635 27.4392C20.3634 27.4392 20.2012 27.6104 20.2012 27.8216C20.2012 28.0327 20.3634 28.2039 20.5635 28.2039Z" fill="#19191B"/>
<path d="M20.9521 28.913C21.1522 28.913 21.3144 28.7418 21.3144 28.5307C21.3144 28.3195 21.1522 28.1483 20.9521 28.1483C20.7521 28.1483 20.5898 28.3195 20.5898 28.5307C20.5898 28.7418 20.7521 28.913 20.9521 28.913Z" fill="#19191B"/>
<path d="M21.1906 29.7111C21.4014 29.7111 21.5745 29.5285 21.5745 29.3059C21.5745 29.0834 21.4014 28.9008 21.1906 28.9008C20.9797 28.9008 20.8066 29.0834 20.8066 29.3059C20.8066 29.5285 20.9797 29.7111 21.1906 29.7111Z" fill="#19191B"/>
<path d="M21.8893 30.1389C21.8982 30.1389 21.9055 30.1312 21.9055 30.1217C21.9055 30.1122 21.8982 30.1045 21.8893 30.1045C21.8803 30.1045 21.873 30.1122 21.873 30.1217C21.873 30.1312 21.8803 30.1389 21.8893 30.1389Z" fill="#19191B"/>
<path d="M21.8191 30.9742C21.8191 30.9742 21.857 30.957 21.857 30.9341C21.857 30.9111 21.8407 30.8939 21.8191 30.8939C21.7975 30.8939 21.7812 30.9111 21.7812 30.9341C21.7812 30.957 21.7975 30.9742 21.8191 30.9742Z" fill="#19191B"/>
<path d="M21.6142 31.7828C21.647 31.7828 21.6736 31.7545 21.6736 31.7197C21.6736 31.6849 21.647 31.6566 21.6142 31.6566C21.5813 31.6566 21.5547 31.6849 21.5547 31.7197C21.5547 31.7545 21.5813 31.7828 21.6142 31.7828Z" fill="#19191B"/>
<path d="M21.2788 32.5428C21.3221 32.5428 21.3545 32.5084 21.3545 32.4625C21.3545 32.4166 21.3221 32.3822 21.2788 32.3822C21.2356 32.3822 21.2031 32.4166 21.2031 32.4625C21.2031 32.5084 21.2356 32.5428 21.2788 32.5428Z" fill="#19191B"/>
<path d="M20.8239 33.2277C20.878 33.2277 20.9212 33.1818 20.9212 33.1245C20.9212 33.0671 20.878 33.0212 20.8239 33.0212C20.7698 33.0212 20.7266 33.0671 20.7266 33.1245C20.7266 33.1818 20.7698 33.2277 20.8239 33.2277Z" fill="#19191B"/>
<path d="M20.2615 33.8145C20.3264 33.8145 20.3805 33.7574 20.3805 33.6889C20.3805 33.6204 20.3264 33.5634 20.2615 33.5634C20.1966 33.5634 20.1426 33.6204 20.1426 33.6889C20.1426 33.7574 20.1966 33.8145 20.2615 33.8145Z" fill="#19191B"/>
<path d="M19.6176 34.2774C19.6923 34.2774 19.7528 34.2135 19.7528 34.1347C19.7528 34.0559 19.6923 33.9921 19.6176 33.9921C19.5429 33.9921 19.4824 34.0559 19.4824 34.1347C19.4824 34.2135 19.5429 34.2774 19.6176 34.2774Z" fill="#19191B"/>
<path d="M18.9047 34.6031C18.9794 34.6031 19.0399 34.5392 19.0399 34.4604C19.0399 34.3816 18.9794 34.3177 18.9047 34.3177C18.8301 34.3177 18.7695 34.3816 18.7695 34.4604C18.7695 34.5392 18.8301 34.6031 18.9047 34.6031Z" fill="#19191B"/>
<path d="M18.1465 34.7897C18.2241 34.7897 18.287 34.7232 18.287 34.6413C18.287 34.5593 18.2241 34.4929 18.1465 34.4929C18.0688 34.4929 18.0059 34.5593 18.0059 34.6413C18.0059 34.7232 18.0688 34.7897 18.1465 34.7897Z" fill="#19191B"/>
<path d="M17.3745 34.83C17.4551 34.83 17.5205 34.761 17.5205 34.6759C17.5205 34.5908 17.4551 34.5219 17.3745 34.5219C17.2939 34.5219 17.2285 34.5908 17.2285 34.6759C17.2285 34.761 17.2939 34.83 17.3745 34.83Z" fill="#19191B"/>
<path d="M16.6065 34.7259C16.6901 34.7259 16.7579 34.6544 16.7579 34.5662C16.7579 34.4779 16.6901 34.4064 16.6065 34.4064C16.5229 34.4064 16.4551 34.4779 16.4551 34.5662C16.4551 34.6544 16.5229 34.7259 16.6065 34.7259Z" fill="#19191B"/>
<path d="M15.8708 34.4881C15.9627 34.4881 16.0384 34.4082 16.0384 34.3112C16.0384 34.2142 15.9627 34.1343 15.8708 34.1343C15.7788 34.1343 15.7031 34.2142 15.7031 34.3112C15.7031 34.4082 15.7788 34.4881 15.8708 34.4881Z" fill="#19191B"/>
<path d="M15.1887 34.1119C15.2842 34.1119 15.3617 34.0302 15.3617 33.9293C15.3617 33.8285 15.2842 33.7467 15.1887 33.7467C15.0931 33.7467 15.0156 33.8285 15.0156 33.9293C15.0156 34.0302 15.0931 34.1119 15.1887 34.1119Z" fill="#19191B"/>
<path d="M14.5833 33.6196C14.6908 33.6196 14.778 33.5276 14.778 33.4142C14.778 33.3007 14.6908 33.2087 14.5833 33.2087C14.4758 33.2087 14.3887 33.3007 14.3887 33.4142C14.3887 33.5276 14.4758 33.6196 14.5833 33.6196Z" fill="#19191B"/>
<path d="M14.0694 33.0336C14.1883 33.0336 14.2911 32.9309 14.2911 32.7997C14.2911 32.6684 14.1937 32.5657 14.0694 32.5657C13.945 32.5657 13.8477 32.6684 13.8477 32.7997C13.8477 32.9309 13.945 33.0336 14.0694 33.0336Z" fill="#19191B"/>
<path d="M13.6759 32.3474C13.8057 32.3474 13.9084 32.2389 13.9084 32.102C13.9084 31.965 13.8057 31.8566 13.6759 31.8566C13.5461 31.8566 13.4434 31.965 13.4434 32.102C13.4434 32.2389 13.5461 32.3474 13.6759 32.3474Z" fill="#19191B"/>
<path d="M13.4045 31.5994C13.5451 31.5994 13.6587 31.4796 13.6587 31.3312C13.6587 31.1828 13.5451 31.063 13.4045 31.063C13.2639 31.063 13.1504 31.1828 13.1504 31.3312C13.1504 31.4796 13.2639 31.5994 13.4045 31.5994Z" fill="#19191B"/>
<path d="M13.2635 30.8008C13.4068 30.8008 13.523 30.6781 13.523 30.5269C13.523 30.3756 13.4068 30.2529 13.2635 30.2529C13.1201 30.2529 13.0039 30.3756 13.0039 30.5269C13.0039 30.6781 13.1201 30.8008 13.2635 30.8008Z" fill="#19191B"/>
<path d="M13.265 29.9918C13.411 29.9918 13.5299 29.8662 13.5299 29.7121C13.5299 29.5581 13.411 29.4325 13.265 29.4325C13.119 29.4325 13 29.5581 13 29.7121C13 29.8662 13.119 29.9918 13.265 29.9918Z" fill="#19191B"/>
<path d="M13.4051 29.191C13.5511 29.191 13.6755 29.0655 13.6755 28.9057C13.6755 28.7459 13.5565 28.6204 13.4051 28.6204C13.2537 28.6204 13.1348 28.7459 13.1348 28.9057C13.1348 29.0655 13.2537 29.191 13.4051 29.191Z" fill="#19191B"/>
<path d="M13.6757 28.4388C13.8325 28.4388 13.9569 28.3076 13.9569 28.1421C13.9569 27.9766 13.8325 27.8453 13.6757 27.8453C13.5189 27.8453 13.3945 27.9766 13.3945 28.1421C13.3945 28.3076 13.5189 28.4388 13.6757 28.4388Z" fill="#19191B"/>
<path d="M14.0693 27.7484C14.2316 27.7484 14.3613 27.6115 14.3613 27.4402C14.3613 27.269 14.2316 27.1321 14.0693 27.1321C13.9071 27.1321 13.7773 27.269 13.7773 27.4402C13.7773 27.6115 13.9071 27.7484 14.0693 27.7484Z" fill="#19191B"/>
<path d="M14.5841 27.1426C14.7517 27.1426 14.8869 26.9999 14.8869 26.823C14.8869 26.6461 14.7517 26.5034 14.5841 26.5034C14.4164 26.5034 14.2812 26.6461 14.2812 26.823C14.2812 26.9999 14.4164 27.1426 14.5841 27.1426Z" fill="#19191B"/>
<path d="M15.1897 26.6586C15.3689 26.6586 15.5141 26.5053 15.5141 26.3162C15.5141 26.1271 15.3689 25.9738 15.1897 25.9738C15.0105 25.9738 14.8652 26.1271 14.8652 26.3162C14.8652 26.5053 15.0105 26.6586 15.1897 26.6586Z" fill="#19191B"/>
<path d="M15.8704 26.2753C16.0543 26.2753 16.2057 26.1155 16.2057 25.9214C16.2057 25.7274 16.0543 25.5676 15.8704 25.5676C15.6866 25.5676 15.5352 25.7274 15.5352 25.9214C15.5352 26.1155 15.6866 26.2753 15.8704 26.2753Z" fill="#19191B"/>
<path d="M16.6063 26.0311C16.7955 26.0311 16.947 25.8713 16.947 25.6715C16.947 25.4718 16.7955 25.312 16.6063 25.312C16.417 25.312 16.2656 25.4718 16.2656 25.6715C16.2656 25.8713 16.417 26.0311 16.6063 26.0311Z" fill="#19191B"/>
<path d="M17.3739 25.9218C17.562 25.9218 17.7145 25.7608 17.7145 25.5623C17.7145 25.3637 17.562 25.2028 17.3739 25.2028C17.1857 25.2028 17.0332 25.3637 17.0332 25.5623C17.0332 25.7608 17.1857 25.9218 17.3739 25.9218Z" fill="#19191B"/>
<path d="M18.1469 25.9683C18.338 25.9683 18.4929 25.8047 18.4929 25.603C18.4929 25.4013 18.338 25.2378 18.1469 25.2378C17.9557 25.2378 17.8008 25.4013 17.8008 25.603C17.8008 25.8047 17.9557 25.9683 18.1469 25.9683Z" fill="#19191B"/>
<path d="M18.9047 26.1435C19.0958 26.1435 19.2507 25.98 19.2507 25.7783C19.2507 25.5766 19.0958 25.4131 18.9047 25.4131C18.7135 25.4131 18.5586 25.5766 18.5586 25.7783C18.5586 25.98 18.7135 26.1435 18.9047 26.1435Z" fill="#19191B"/>
<path d="M19.6171 26.4744C19.8112 26.4744 19.9686 26.3083 19.9686 26.1035C19.9686 25.8986 19.8112 25.7325 19.6171 25.7325C19.423 25.7325 19.2656 25.8986 19.2656 26.1035C19.2656 26.3083 19.423 26.4744 19.6171 26.4744Z" fill="#19191B"/>
<path d="M20.2612 26.9269C20.4558 26.9269 20.6181 26.7614 20.6181 26.5502C20.6181 26.3391 20.4612 26.1736 20.2612 26.1736C20.0611 26.1736 19.9043 26.3391 19.9043 26.5502C19.9043 26.7614 20.0611 26.9269 20.2612 26.9269Z" fill="#19191B"/>
<path d="M20.8237 27.4958C21.0183 27.4958 21.1806 27.3304 21.1806 27.1192C21.1806 26.9081 21.0238 26.7426 20.8237 26.7426C20.6236 26.7426 20.4668 26.9081 20.4668 27.1192C20.4668 27.3304 20.6236 27.4958 20.8237 27.4958Z" fill="#19191B"/>
<path d="M21.2779 28.17C21.4809 28.17 21.6456 27.9963 21.6456 27.782C21.6456 27.5677 21.4809 27.3939 21.2779 27.3939C21.0748 27.3939 20.9102 27.5677 20.9102 27.782C20.9102 27.9963 21.0748 28.17 21.2779 28.17Z" fill="#19191B"/>
<path d="M21.6138 28.9059C21.8193 28.9059 21.9815 28.729 21.9815 28.5178C21.9815 28.3067 21.8139 28.1298 21.6138 28.1298C21.4137 28.1298 21.2461 28.3067 21.2461 28.5178C21.2461 28.729 21.4137 28.9059 21.6138 28.9059Z" fill="#19191B"/>
<path d="M21.8175 29.7111C22.0284 29.7111 22.2014 29.5285 22.2014 29.3059C22.2014 29.0834 22.0284 28.9008 21.8175 28.9008C21.6066 28.9008 21.4336 29.0834 21.4336 29.3059C21.4336 29.5285 21.6066 29.7111 21.8175 29.7111Z" fill="#19191B"/>
<path d="M22.4459 30.949C22.4549 30.949 22.4621 30.9413 22.4621 30.9318C22.4621 30.9223 22.4549 30.9146 22.4459 30.9146C22.4369 30.9146 22.4297 30.9223 22.4297 30.9318C22.4297 30.9413 22.4369 30.949 22.4459 30.949Z" fill="#19191B"/>
<path d="M22.2665 31.7951C22.299 31.7951 22.326 31.7664 22.326 31.732C22.326 31.6976 22.299 31.6689 22.2665 31.6689C22.2341 31.6689 22.207 31.6976 22.207 31.732C22.207 31.7664 22.2341 31.7951 22.2665 31.7951Z" fill="#19191B"/>
<path d="M21.9701 32.5422C21.9999 32.5422 22.0242 32.5165 22.0242 32.4848C22.0242 32.4532 21.9999 32.4275 21.9701 32.4275C21.9402 32.4275 21.916 32.4532 21.916 32.4848C21.916 32.5165 21.9402 32.5422 21.9701 32.5422Z" fill="#19191B"/>
<path d="M21.564 33.2663C21.6072 33.2663 21.6397 33.2319 21.6397 33.186C21.6397 33.1401 21.6072 33.1057 21.564 33.1057C21.5207 33.1057 21.4883 33.1401 21.4883 33.186C21.4883 33.2319 21.5207 33.2663 21.564 33.2663Z" fill="#19191B"/>
<path d="M21.0608 33.9226C21.1203 33.9226 21.1744 33.8712 21.1744 33.8027C21.1744 33.7342 21.1257 33.6829 21.0608 33.6829C20.9959 33.6829 20.9473 33.7342 20.9473 33.8027C20.9473 33.8712 20.9959 33.9226 21.0608 33.9226Z" fill="#19191B"/>
<path d="M20.4725 34.4637C20.5374 34.4637 20.5914 34.4067 20.5914 34.3382C20.5914 34.2697 20.5374 34.2126 20.4725 34.2126C20.4076 34.2126 20.3535 34.2697 20.3535 34.3382C20.3535 34.4067 20.4076 34.4637 20.4725 34.4637Z" fill="#19191B"/>
<path d="M19.8129 34.904C19.8876 34.904 19.9481 34.8401 19.9481 34.7613C19.9481 34.6825 19.8876 34.6187 19.8129 34.6187C19.7383 34.6187 19.6777 34.6825 19.6777 34.7613C19.6777 34.8401 19.7383 34.904 19.8129 34.904Z" fill="#19191B"/>
<path d="M19.0922 35.2194C19.1669 35.2194 19.2274 35.1555 19.2274 35.0768C19.2274 34.998 19.1669 34.9341 19.0922 34.9341C19.0176 34.9341 18.957 34.998 18.957 35.0768C18.957 35.1555 19.0176 35.2194 19.0922 35.2194Z" fill="#19191B"/>
<path d="M18.3413 35.4174C18.4224 35.4174 18.4873 35.3489 18.4873 35.2633C18.4873 35.1777 18.4224 35.1093 18.3413 35.1093C18.2602 35.1093 18.1953 35.1777 18.1953 35.2633C18.1953 35.3489 18.2602 35.4174 18.3413 35.4174Z" fill="#19191B"/>
<path d="M17.5679 35.4875C17.649 35.4875 17.7139 35.419 17.7139 35.3334C17.7139 35.2478 17.649 35.1793 17.5679 35.1793C17.4868 35.1793 17.4219 35.2478 17.4219 35.3334C17.4219 35.419 17.4868 35.4875 17.5679 35.4875Z" fill="#19191B"/>
<path d="M16.7944 35.4236C16.8751 35.4236 16.9404 35.3547 16.9404 35.2696C16.9404 35.1845 16.8751 35.1155 16.7944 35.1155C16.7138 35.1155 16.6484 35.1845 16.6484 35.2696C16.6484 35.3547 16.7138 35.4236 16.7944 35.4236Z" fill="#19191B"/>
<path d="M16.0435 35.2403C16.1301 35.2403 16.2003 35.1662 16.2003 35.0748C16.2003 34.9834 16.1301 34.9093 16.0435 34.9093C15.9569 34.9093 15.8867 34.9834 15.8867 35.0748C15.8867 35.1662 15.9569 35.2403 16.0435 35.2403Z" fill="#19191B"/>
<path d="M15.3254 34.9447C15.4173 34.9447 15.4984 34.8648 15.4984 34.7621C15.4984 34.6594 15.4227 34.5795 15.3254 34.5795C15.2281 34.5795 15.1523 34.6594 15.1523 34.7621C15.1523 34.8648 15.2281 34.9447 15.3254 34.9447Z" fill="#19191B"/>
<path d="M14.6643 34.5286C14.7659 34.5286 14.8482 34.4417 14.8482 34.3345C14.8482 34.2274 14.7659 34.1405 14.6643 34.1405C14.5628 34.1405 14.4805 34.2274 14.4805 34.3345C14.4805 34.4417 14.5628 34.5286 14.6643 34.5286Z" fill="#19191B"/>
<path d="M14.0746 34.0197C14.1881 34.0197 14.2801 33.9226 14.2801 33.8028C14.2801 33.683 14.1881 33.5859 14.0746 33.5859C13.9611 33.5859 13.8691 33.683 13.8691 33.8028C13.8691 33.9226 13.9611 34.0197 14.0746 34.0197Z" fill="#19191B"/>
<path d="M13.5724 33.4316C13.7021 33.4316 13.8049 33.3231 13.8049 33.1862C13.8049 33.0492 13.7021 32.9408 13.5724 32.9408C13.4426 32.9408 13.3398 33.0492 13.3398 33.1862C13.3398 33.3231 13.4426 33.4316 13.5724 33.4316Z" fill="#19191B"/>
<path d="M13.1661 32.7308C13.2945 32.7308 13.3986 32.6209 13.3986 32.4854C13.3986 32.3499 13.2945 32.24 13.1661 32.24C13.0377 32.24 12.9336 32.3499 12.9336 32.4854C12.9336 32.6209 13.0377 32.7308 13.1661 32.7308Z" fill="#19191B"/>
<path d="M12.8694 31.9993C13.01 31.9993 13.1235 31.8795 13.1235 31.7311C13.1235 31.5827 13.01 31.4629 12.8694 31.4629C12.7288 31.4629 12.6152 31.5827 12.6152 31.7311C12.6152 31.8795 12.7288 31.9993 12.8694 31.9993Z" fill="#19191B"/>
<path d="M12.6897 31.2057C12.8303 31.2057 12.9438 31.0859 12.9438 30.9375C12.9438 30.7892 12.8303 30.6693 12.6897 30.6693C12.5491 30.6693 12.4355 30.7892 12.4355 30.9375C12.4355 31.0859 12.5491 31.2057 12.6897 31.2057Z" fill="#19191B"/>
<path d="M12.6306 30.3967C12.774 30.3967 12.8902 30.2741 12.8902 30.1228C12.8902 29.9715 12.774 29.8489 12.6306 29.8489C12.4873 29.8489 12.3711 29.9715 12.3711 30.1228C12.3711 30.2741 12.4873 30.3967 12.6306 30.3967Z" fill="#19191B"/>
<path d="M12.6907 29.5795C12.8367 29.5795 12.9557 29.454 12.9557 29.2999C12.9557 29.1458 12.8367 29.0203 12.6907 29.0203C12.5447 29.0203 12.4258 29.1458 12.4258 29.2999C12.4258 29.454 12.5447 29.5795 12.6907 29.5795Z" fill="#19191B"/>
<path d="M12.87 28.7911C13.0214 28.7911 13.1403 28.6656 13.1403 28.5058C13.1403 28.346 13.0214 28.2205 12.87 28.2205C12.7186 28.2205 12.5996 28.346 12.5996 28.5058C12.5996 28.6656 12.7186 28.7911 12.87 28.7911Z" fill="#19191B"/>
<path d="M13.1659 28.0493C13.3212 28.0493 13.4471 27.9165 13.4471 27.7526C13.4471 27.5887 13.3212 27.4558 13.1659 27.4558C13.0107 27.4558 12.8848 27.5887 12.8848 27.7526C12.8848 27.9165 13.0107 28.0493 13.1659 28.0493Z" fill="#19191B"/>
<path d="M13.5717 27.3598C13.73 27.3598 13.8583 27.2244 13.8583 27.0573C13.8583 26.8903 13.73 26.7549 13.5717 26.7549C13.4135 26.7549 13.2852 26.8903 13.2852 27.0573C13.2852 27.2244 13.4135 27.3598 13.5717 27.3598Z" fill="#19191B"/>
<path d="M14.0743 26.7551C14.2419 26.7551 14.3771 26.6125 14.3771 26.4355C14.3771 26.2586 14.2419 26.116 14.0743 26.116C13.9067 26.116 13.7715 26.2586 13.7715 26.4355C13.7715 26.6125 13.9067 26.7551 14.0743 26.7551Z" fill="#19191B"/>
<path d="M14.6647 26.241C14.8432 26.241 14.9838 26.0926 14.9838 25.9043C14.9838 25.716 14.8432 25.5676 14.6647 25.5676C14.4863 25.5676 14.3457 25.716 14.3457 25.9043C14.3457 26.0926 14.4863 26.241 14.6647 26.241Z" fill="#19191B"/>
<path d="M15.3244 25.8196C15.5029 25.8196 15.6489 25.6655 15.6489 25.4772C15.6489 25.2889 15.5029 25.1348 15.3244 25.1348C15.146 25.1348 15 25.2889 15 25.4772C15 25.6655 15.146 25.8196 15.3244 25.8196Z" fill="#19191B"/>
<path d="M16.0442 25.5167C16.2281 25.5167 16.3795 25.3569 16.3795 25.1629C16.3795 24.9689 16.2281 24.8091 16.0442 24.8091C15.8604 24.8091 15.709 24.9689 15.709 25.1629C15.709 25.3569 15.8604 25.5167 16.0442 25.5167Z" fill="#19191B"/>
<path d="M16.7957 25.3282C16.9839 25.3282 17.1364 25.1672 17.1364 24.9687C17.1364 24.7701 16.9839 24.6091 16.7957 24.6091C16.6076 24.6091 16.4551 24.7701 16.4551 24.9687C16.4551 25.1672 16.6076 25.3282 16.7957 25.3282Z" fill="#19191B"/>
<path d="M17.5687 25.2717C17.758 25.2717 17.9148 25.1119 17.9148 24.9065C17.9148 24.701 17.7634 24.5413 17.5687 24.5413C17.3741 24.5413 17.2227 24.701 17.2227 24.9065C17.2227 25.1119 17.3741 25.2717 17.5687 25.2717Z" fill="#19191B"/>
<path d="M18.3422 25.3334C18.5314 25.3334 18.6882 25.1736 18.6882 24.9681C18.6882 24.7627 18.5368 24.6029 18.3422 24.6029C18.1475 24.6029 17.9961 24.7627 17.9961 24.9681C17.9961 25.1736 18.1475 25.3334 18.3422 25.3334Z" fill="#19191B"/>
<path d="M19.0922 25.5272C19.2833 25.5272 19.4382 25.3637 19.4382 25.162C19.4382 24.9603 19.2833 24.7968 19.0922 24.7968C18.901 24.7968 18.7461 24.9603 18.7461 25.162C18.7461 25.3637 18.901 25.5272 19.0922 25.5272Z" fill="#19191B"/>
<path d="M19.8129 25.8425C20.0075 25.8425 20.1589 25.677 20.1589 25.4773C20.1589 25.2775 20.0021 25.1121 19.8129 25.1121C19.6236 25.1121 19.4668 25.2775 19.4668 25.4773C19.4668 25.677 19.6236 25.8425 19.8129 25.8425Z" fill="#19191B"/>
<path d="M20.4726 26.2765C20.6672 26.2765 20.824 26.111 20.824 25.9056C20.824 25.7002 20.6672 25.5347 20.4726 25.5347C20.2779 25.5347 20.1211 25.7002 20.1211 25.9056C20.1211 26.111 20.2779 26.2765 20.4726 26.2765Z" fill="#19191B"/>
<path d="M21.062 26.8115C21.2591 26.8115 21.4188 26.6429 21.4188 26.4349C21.4188 26.2268 21.2591 26.0582 21.062 26.0582C20.8649 26.0582 20.7051 26.2268 20.7051 26.4349C20.7051 26.6429 20.8649 26.8115 21.062 26.8115Z" fill="#19191B"/>
<path d="M21.5639 27.4339C21.764 27.4339 21.9208 27.2628 21.9208 27.0573C21.9208 26.8519 21.7586 26.6807 21.5639 26.6807C21.3693 26.6807 21.207 26.8519 21.207 27.0573C21.207 27.2628 21.3693 27.4339 21.5639 27.4339Z" fill="#19191B"/>
<path d="M21.9693 28.1412C22.1747 28.1412 22.337 27.9643 22.337 27.7532C22.337 27.542 22.1693 27.3651 21.9693 27.3651C21.7692 27.3651 21.6016 27.542 21.6016 27.7532C21.6016 27.9643 21.7692 28.1412 21.9693 28.1412Z" fill="#19191B"/>
<path d="M22.2672 28.906C22.4781 28.906 22.6457 28.7291 22.6457 28.5065C22.6457 28.284 22.4781 28.1071 22.2672 28.1071C22.0563 28.1071 21.8887 28.284 21.8887 28.5065C21.8887 28.7291 22.0563 28.906 22.2672 28.906Z" fill="#19191B"/>
<path d="M22.446 29.7184C22.6623 29.7184 22.8353 29.5357 22.8353 29.3075C22.8353 29.0792 22.6623 28.8966 22.446 28.8966C22.2297 28.8966 22.0566 29.0792 22.0566 29.3075C22.0566 29.5357 22.2297 29.7184 22.446 29.7184Z" fill="#19191B"/>
<path d="M22.8736 30.0945C22.8736 30.8592 22.2842 31.4813 21.5596 31.4813C20.835 31.4813 20.2402 30.8592 20.2402 30.0945C20.2402 29.3298 20.8296 28.7078 21.5596 28.7078C22.2896 28.7078 22.8736 29.3298 22.8736 30.0945Z" fill="#19191B"/>
</svg>
